<?xml version="1.0" encoding="UTF-8" standalone="no"?>
<!-- Created with Inkscape (http://www.inkscape.org/) -->

<svg
   width="86"
   height="86"
   viewBox="0 0 22.754166 22.754166"
   version="1.1"
   id="svg1"
   inkscape:version="1.3.2 (091e20e, 2023-11-25, custom)"
   sodipodi:docname="Icon.svg"
   inkscape:export-filename="Logo.png"
   inkscape:export-xdpi="96"
   inkscape:export-ydpi="96"
   xmlns:inkscape="http://www.inkscape.org/namespaces/inkscape"
   xmlns:sodipodi="http://sodipodi.sourceforge.net/DTD/sodipodi-0.dtd"
   xmlns="http://www.w3.org/2000/svg"
   xmlns:svg="http://www.w3.org/2000/svg">
  <sodipodi:namedview
     id="namedview1"
     pagecolor="#ffffff"
     bordercolor="#000000"
     borderopacity="0.25"
     inkscape:showpageshadow="2"
     inkscape:pageopacity="0.0"
     inkscape:pagecheckerboard="true"
     inkscape:deskcolor="#d1d1d1"
     inkscape:document-units="mm"
     showgrid="true"
     inkscape:zoom="4.0970529"
     inkscape:cx="22.943321"
     inkscape:cy="34.781099"
     inkscape:window-width="1920"
     inkscape:window-height="1009"
     inkscape:window-x="-8"
     inkscape:window-y="-7"
     inkscape:window-maximized="1"
     inkscape:current-layer="layer1">
    <inkscape:grid
       id="grid1"
       units="px"
       originx="0"
       originy="0"
       spacingx="11.377083"
       spacingy="11.377083"
       empcolor="#0099e5"
       empopacity="0.30196078"
       color="#0099e5"
       opacity="0.14901961"
       empspacing="4"
       dotted="false"
       gridanglex="30"
       gridanglez="30"
       visible="true" />
  </sodipodi:namedview>
  <defs
     id="defs1" />
  <g
     inkscape:label="Layer 1"
     inkscape:groupmode="layer"
     id="layer1">
    <path
       id="path6"
       style="display:inline;fill:#d32240;fill-opacity:1;stroke:none;stroke-width:0.529167;stroke-linecap:round;stroke-linejoin:round;stroke-dashoffset:2;paint-order:markers fill stroke"
       d="m 4.7624997,6.0854163 0.066146,0.033073 A 5.2916665,5.2916665 0 0 0 -2.8810836e-7,11.377083 5.2916665,5.2916665 0 0 0 4.8286455,16.635676 l -0.066146,0.03307 H 5.2916663 17.4625 A 5.2916665,5.2916665 0 0 0 22.754166,11.377083 5.2916665,5.2916665 0 0 0 17.4625,6.0854163 H 5.2916663 Z m 0.5291666,1.0583333 a 4.2333331,4.2333331 0 0 1 3.3930746,1.712557 l 0.022221,0.067179 -0.8583455,0.5725748 a 3.175,3.175 0 0 0 -2.5569499,-1.2939778 3.175,3.175 0 0 0 -3.175,3.1749994 3.175,3.175 0 0 0 3.175,3.175 3.175,3.175 0 0 0 2.5481649,-1.299662 l 0.8671305,0.578259 -0.022221,0.06718 A 4.2333331,4.2333331 0 0 1 5.2916663,15.610416 4.2333331,4.2333331 0 0 1 1.058333,11.377083 4.2333331,4.2333331 0 0 1 5.2916663,7.1437496 Z m 5.2916667,0 h 1.058333 v 8.4666664 h -1.058333 v -4.233333 z m 6.879167,0 A 4.2333331,4.2333331 0 0 1 21.695833,11.377083 4.2333331,4.2333331 0 0 1 17.4625,15.610416 4.2333331,4.2333331 0 0 1 13.229166,11.377083 4.2333331,4.2333331 0 0 1 17.4625,7.1437496 Z m 0,1.0583334 a 3.175,3.175 0 0 0 -3.175,3.175 3.175,3.175 0 0 0 3.175,3.175 3.175,3.175 0 0 0 3.175,-3.175 3.175,3.175 0 0 0 -3.175,-3.175 z" />
  </g>
</svg>
