<?xml version="1.0" encoding="UTF-8" standalone="no"?>
<!-- Created with Inkscape (http://www.inkscape.org/) -->

<svg
   width="206"
   height="40"
   viewBox="0 0 54.504165 10.583333"
   version="1.1"
   id="svg1"
   inkscape:version="1.3.2 (091e20e, 2023-11-25, custom)"
   sodipodi:docname="Logo.svg"
   xmlns:inkscape="http://www.inkscape.org/namespaces/inkscape"
   xmlns:sodipodi="http://sodipodi.sourceforge.net/DTD/sodipodi-0.dtd"
   xmlns="http://www.w3.org/2000/svg"
   xmlns:svg="http://www.w3.org/2000/svg">
  <sodipodi:namedview
     id="namedview1"
     pagecolor="#ffffff"
     bordercolor="#000000"
     borderopacity="0.25"
     inkscape:showpageshadow="2"
     inkscape:pageopacity="0.0"
     inkscape:pagecheckerboard="0"
     inkscape:deskcolor="#d1d1d1"
     inkscape:document-units="mm"
     showgrid="true"
     inkscape:zoom="8.1941057"
     inkscape:cx="121.55079"
     inkscape:cy="20.80764"
     inkscape:window-width="1920"
     inkscape:window-height="1009"
     inkscape:window-x="-8"
     inkscape:window-y="-7"
     inkscape:window-maximized="1"
     inkscape:current-layer="layer1">
    <inkscape:grid
       id="grid1"
       units="px"
       originx="0"
       originy="0"
       spacingx="0.52916665"
       spacingy="0.52916665"
       empcolor="#0099e5"
       empopacity="0.30196078"
       color="#0099e5"
       opacity="0.14901961"
       empspacing="4"
       dotted="false"
       gridanglex="30"
       gridanglez="30"
       visible="true" />
  </sodipodi:namedview>
  <defs
     id="defs1" />
  <g
     inkscape:label="Layer 1"
     inkscape:groupmode="layer"
     id="layer1">
    <path
       id="path6"
       style="display:inline;fill:#d32240;fill-opacity:1;stroke:none;stroke-width:0.529167;stroke-linecap:round;stroke-linejoin:round;stroke-dashoffset:2;paint-order:markers fill stroke"
       d="M 4.7625,-1.1482168e-7 4.8286458,0.03307281 A 5.2916665,5.2916665 0 0 0 0,5.2916666 5.2916665,5.2916665 0 0 0 4.8286458,10.55026 l -0.066146,0.03307 H 5.2916666 17.462501 A 5.2916665,5.2916665 0 0 0 22.754167,5.2916666 5.2916665,5.2916665 0 0 0 17.462501,-1.1482168e-7 H 5.2916666 Z M 5.2916666,1.0583332 a 4.2333331,4.2333331 0 0 1 3.3930746,1.712557 l 0.022221,0.067179 -0.8583455,0.5725748 a 3.175,3.175 0 0 0 -2.5569499,-1.2939778 3.175,3.175 0 0 0 -3.175,3.175 3.175,3.175 0 0 0 3.175,3.175 3.175,3.175 0 0 0 2.5481649,-1.2996623 l 0.8671305,0.5782593 -0.022221,0.067179 A 4.2333331,4.2333331 0 0 1 5.2916666,9.5249999 4.2333331,4.2333331 0 0 1 1.0583333,5.2916666 4.2333331,4.2333331 0 0 1 5.2916666,1.0583332 Z m 5.2916674,0 h 1.058333 V 9.5249999 H 10.583334 V 5.2916666 Z m 6.879167,0 a 4.2333331,4.2333331 0 0 1 4.233333,4.2333334 4.2333331,4.2333331 0 0 1 -4.233333,4.2333333 4.2333331,4.2333331 0 0 1 -4.233334,-4.2333333 4.2333331,4.2333331 0 0 1 4.233334,-4.2333334 z m 0,1.0583334 a 3.175,3.175 0 0 0 -3.175,3.175 3.175,3.175 0 0 0 3.175,3.175 3.175,3.175 0 0 0 3.175,-3.175 3.175,3.175 0 0 0 -3.175,-3.175 z" />
    <path
       id="text1"
       style="font-style:normal;font-variant:normal;font-weight:bold;font-stretch:normal;font-size:8.46667px;line-height:0px;font-family:'Roboto Slab';-inkscape-font-specification:'Roboto Slab Bold';font-variant-caps:small-caps;text-align:center;word-spacing:0px;baseline-shift:baseline;text-anchor:middle;fill:#d32240;stroke-width:0.529167;stroke-linecap:round;stroke-linejoin:round;stroke-dashoffset:2;paint-order:markers fill stroke;fill-opacity:1"
       d="M 28.110946 2.1952148 C 27.559731 2.1952148 27.085685 2.3275067 26.68881 2.5920898 C 26.291935 2.856673 25.987389 3.2190975 25.775171 3.679362 C 25.562953 4.1368704 25.456844 4.6605255 25.456844 5.2503255 L 25.456844 5.3371419 C 25.456844 5.9214298 25.557441 6.4437069 25.758634 6.9039714 C 25.962584 7.3642358 26.265753 7.7266603 26.66814 7.9912435 C 27.073283 8.2558267 27.577645 8.3881185 28.181226 8.3881185 C 28.514711 8.3881185 28.83855 8.3495334 29.152743 8.2723633 C 29.466935 8.1924371 29.737031 8.0821939 29.963029 7.9416341 L 29.963029 6.6352539 L 29.326375 6.6352539 L 29.235425 7.4744792 C 29.114158 7.5488932 28.961195 7.6095269 28.776538 7.6563802 C 28.591881 7.7032335 28.40309 7.7266602 28.210164 7.7266602 C 27.796753 7.7266602 27.445353 7.6329534 27.155965 7.4455404 C 26.869333 7.2581273 26.650225 6.9866534 26.498641 6.6311198 C 26.349813 6.2728301 26.275399 5.8415036 26.275399 5.3371419 L 26.275399 5.2420573 C 26.275399 4.7762807 26.345679 4.3656248 26.486239 4.0100911 C 26.626798 3.6545575 26.833504 3.3761935 27.106356 3.175 C 27.379207 2.9710505 27.712693 2.8690755 28.106812 2.8690755 C 28.26942 2.8690755 28.419626 2.8814779 28.55743 2.9062826 C 28.69799 2.9310872 28.824769 2.9669163 28.937769 3.0137695 C 29.053524 3.0606228 29.155499 3.1185005 29.243693 3.1874023 L 29.330509 4.1382487 L 29.979565 4.1382487 L 29.979565 2.8401367 C 29.767348 2.6527236 29.500008 2.4983832 29.177547 2.3771159 C 28.855086 2.2558486 28.499552 2.1952148 28.110946 2.1952148 z M 46.280379 2.1952148 C 45.891773 2.1952148 45.543129 2.269629 45.234448 2.418457 C 44.925768 2.5672851 44.662562 2.7781252 44.444832 3.0509766 C 44.229859 3.323828 44.064494 3.6476673 43.948739 4.0224935 C 43.83574 4.3945636 43.77924 4.8038414 43.77924 5.2503255 L 43.77924 5.3371419 C 43.77924 5.7863821 43.83574 6.197038 43.948739 6.5691081 C 44.064494 6.9411782 44.229859 7.2636395 44.444832 7.5364909 C 44.662562 7.8065862 44.925768 8.0160483 45.234448 8.1648763 C 45.543129 8.3137043 45.891773 8.3881185 46.280379 8.3881185 C 46.691034 8.3881185 47.052081 8.3137043 47.363517 8.1648763 C 47.674954 8.0160483 47.935403 7.8065862 48.144865 7.5364909 C 48.357083 7.2636395 48.516935 6.9411782 48.624422 6.5691081 C 48.731909 6.197038 48.785653 5.7863821 48.785653 5.3371419 L 48.785653 5.2503255 C 48.785653 4.8038414 48.731909 4.3945636 48.624422 4.0224935 C 48.516935 3.6476673 48.357083 3.323828 48.144865 3.0509766 C 47.935403 2.7781252 47.674954 2.5672851 47.363517 2.418457 C 47.052081 2.269629 46.691034 2.1952148 46.280379 2.1952148 z M 40.992847 2.2820312 L 40.992847 2.8070638 L 41.666707 2.922819 L 41.666707 7.6646484 L 40.992847 7.7804036 L 40.992847 8.3013021 L 43.154989 8.3013021 L 43.154989 7.7804036 L 42.481128 7.6646484 L 42.481128 2.922819 L 43.154989 2.8070638 L 43.154989 2.2820312 L 40.992847 2.2820312 z M 46.280379 2.8773437 C 46.674498 2.8773438 46.995581 2.9779407 47.243628 3.1791341 C 47.491675 3.3775715 47.673576 3.6545575 47.789331 4.0100911 C 47.907842 4.3628687 47.967098 4.7735246 47.967098 5.2420573 L 47.967098 5.3371419 C 47.967098 5.8084307 47.90922 6.2232207 47.793465 6.5815104 C 47.67771 6.9370441 47.495809 7.2140301 47.247762 7.4124674 C 47.002471 7.6109048 46.68001 7.7101237 46.280379 7.7101237 C 45.919333 7.7101237 45.613409 7.6109048 45.362606 7.4124674 C 45.111803 7.211274 44.921633 6.9329099 44.792098 6.5773763 C 44.662562 6.2190866 44.597795 5.8056746 44.597795 5.3371419 L 44.597795 5.2420573 C 44.597795 4.7762807 44.662562 4.3670028 44.792098 4.0142253 C 44.921633 3.6586916 45.111803 3.3803276 45.362606 3.1791341 C 45.613409 2.9779407 45.919333 2.8773438 46.280379 2.8773437 z M 32.778361 3.7455078 C 32.370462 3.7455078 32.016306 3.8433486 31.715894 4.0390299 C 31.418237 4.2347113 31.188105 4.5048071 31.025496 4.8493164 C 30.862888 5.1910697 30.781584 5.582433 30.781584 6.0234049 L 30.781584 6.1143555 C 30.781584 6.5553274 30.862888 6.9480688 31.025496 7.2925781 C 31.188105 7.6343314 31.418237 7.9030492 31.715894 8.0987305 C 32.016306 8.2916557 32.373218 8.3881185 32.786629 8.3881185 C 33.197284 8.3881185 33.551441 8.2916557 33.849097 8.0987305 C 34.146753 7.9058052 34.376885 7.6384655 34.539494 7.2967122 C 34.702102 6.9522029 34.783407 6.5580835 34.783407 6.1143555 L 34.783407 6.0234049 C 34.783407 5.5796769 34.702102 5.1869356 34.539494 4.8451823 C 34.376885 4.503429 34.145375 4.2347113 33.844963 4.0390299 C 33.547306 3.8433486 33.191772 3.7455078 32.778361 3.7455078 z M 38.198185 3.7455078 C 37.911553 3.7455078 37.655238 3.8116537 37.42924 3.9439453 C 37.205998 4.0734808 37.019962 4.2567601 36.871134 4.4937826 L 36.813257 3.8281901 L 35.411792 3.8281901 L 35.411792 4.3532227 L 36.085653 4.4689779 L 36.085653 7.6646484 L 35.411792 7.7804036 L 35.411792 8.3013021 L 37.573934 8.3013021 L 37.573934 7.7804036 L 36.900073 7.6646484 L 36.900073 5.0394857 C 37.00756 4.8438044 37.150876 4.6894639 37.330021 4.5764648 C 37.511922 4.4634658 37.720006 4.4069661 37.954272 4.4069661 C 38.273977 4.4069661 38.511 4.4896485 38.66534 4.655013 C 38.822436 4.8203775 38.900985 5.1001196 38.900985 5.4942383 L 38.900985 7.6646484 L 38.227124 7.7804036 L 38.227124 8.3013021 L 40.389266 8.3013021 L 40.389266 7.7804036 L 39.715405 7.6646484 L 39.715405 5.4777018 C 39.715405 4.8879018 39.583113 4.4524412 39.31853 4.1713216 C 39.053947 3.8874459 38.680498 3.7455078 38.198185 3.7455078 z M 32.778361 4.3862956 C 33.040188 4.3862956 33.259296 4.4579536 33.435685 4.6012695 C 33.612074 4.7418293 33.744366 4.936133 33.83256 5.1841797 C 33.923511 5.4294703 33.968986 5.7092124 33.968986 6.0234049 L 33.968986 6.1143555 C 33.968986 6.428548 33.923511 6.7096681 33.83256 6.9577148 C 33.744366 7.2030055 33.612074 7.3973091 33.435685 7.540625 C 33.262053 7.6811848 33.0457 7.7514648 32.786629 7.7514648 C 32.524802 7.7514648 32.304316 7.6811848 32.125171 7.540625 C 31.948782 7.3973091 31.81649 7.2030055 31.728296 6.9577148 C 31.640102 6.7096681 31.596004 6.428548 31.596004 6.1143555 L 31.596004 6.0234049 C 31.596004 5.7092124 31.640102 5.4294703 31.728296 5.1841797 C 31.81649 4.936133 31.948782 4.7418293 32.125171 4.6012695 C 32.30156 4.4579536 32.51929 4.3862956 32.778361 4.3862956 z " />
  </g>
</svg>
